/* XPM */
static char *icon[] = {
/* columns rows colors chars-per-pixel */
"32 32 256 2",
"   c #000602",
".  c #020B03",
"X  c #0D0803",
"o  c #051208",
"O  c #08180B",
"+  c #130101",
"@  c #1B0102",
"#  c #130D09",
"$  c #18120B",
"%  c #0D2311",
"&  c #122C16",
"*  c #15341A",
"=  c #17391C",
"-  c #1C3B20",
";  c #260404",
":  c #21190E",
">  c #231A10",
",  c #3B0708",
"<  c #360606",
"1  c #3E1311",
"2  c #243018",
"3  c #233626",
"4  c #2A2B57",
"5  c #34254A",
"6  c #1B4321",
"7  c #1D4824",
"8  c #204926",
"9  c #214E28",
"0  c #274323",
"q  c #23532A",
"w  c #27562C",
"e  c #285C30",
"r  c #30543A",
"t  c #2B6534",
"y  c #33773C",
"u  c #367E41",
"i  c #410708",
"p  c #45090A",
"a  c #49090A",
"s  c #450607",
"d  c #530A0B",
"f  c #5C0B0C",
"g  c #520C11",
"h  c #5B1014",
"j  c #401F3D",
"k  c #4D1B27",
"l  c #533F3A",
"z  c #640C0D",
"x  c #6A0D0D",
"c  c #680F10",
"v  c #650F10",
"b  c #6A1012",
"n  c #651016",
"m  c #750D0D",
"M  c #730F10",
"N  c #7C0F10",
"B  c #741111",
"V  c #7B1112",
"C  c #6E302D",
"Z  c #672D35",
"A  c #5A3F75",
"S  c #762D4F",
"D  c #484E3A",
"F  c #4B5140",
"G  c #56584D",
"H  c #4E4870",
"J  c #524E6F",
"K  c #534F7A",
"L  c #5B6055",
"P  c #5E676F",
"I  c #5E697C",
"U  c #6F4842",
"Y  c #6F4E55",
"T  c #6F5B57",
"R  c #72524F",
"E  c #725D59",
"W  c #764E55",
"Q  c #68645D",
"!  c #746259",
"~  c #7C7759",
"^  c #656869",
"/  c #616A71",
"(  c #677079",
")  c #7E6067",
"_  c #7D676F",
"`  c #766168",
"'  c #7A6F75",
"]  c #78796B",
"[  c #757775",
"{  c #6C3D8E",
"}  c #6A3A93",
"|  c #7B3C83",
" . c #474996",
".. c #534F89",
"X. c #514E94",
"o. c #59549C",
"O. c #515188",
"+. c #594DAA",
"@. c #5855A9",
"#. c #5B55B8",
"$. c #4B49A4",
"%. c #5C6385",
"&. c #5D699C",
"*. c #6D448A",
"=. c #6D4496",
"-. c #75428B",
";. c #734B9C",
":. c #744895",
">. c #78559B",
",. c #6E4EAE",
"<. c #6756A9",
"1. c #6554B9",
"2. c #754DA6",
"3. c #7956A7",
"4. c #7857B5",
"5. c #676C85",
"6. c #626994",
"7. c #6E7883",
"8. c #6E758F",
"9. c #6C7292",
"0. c #727885",
"q. c #727994",
"w. c #656CA5",
"e. c #6460BB",
"r. c #6F72B3",
"t. c #7070AC",
"y. c #7075B6",
"u. c #5B55C2",
"i. c #4B58C4",
"p. c #5764D6",
"a. c #625AC4",
"s. c #7C5AC4",
"d. c #6766C9",
"f. c #6A6BD6",
"g. c #6473C5",
"h. c #6973D0",
"j. c #706DD2",
"k. c #7570DB",
"l. c #7569C9",
"z. c #606FE5",
"x. c #6A74F9",
"c. c #7474E1",
"v. c #7876E9",
"b. c #7A7CF6",
"n. c #398243",
"m. c #3B8A47",
"M. c #3E904A",
"N. c #42964F",
"B. c #459D51",
"V. c #4CAA59",
"C. c #47A454",
"Z. c #4FB35D",
"A. c #50B55F",
"S. c #53B962",
"D. c #56C266",
"F. c #62DC74",
"G. c #65E477",
"H. c #78838D",
"J. c #7E8894",
"K. c #6FF982",
"L. c #73FF87",
"P. c #800F0E",
"I. c #890F13",
"U. c #831213",
"Y. c #8A1213",
"T. c #861518",
"R. c #921415",
"E. c #991517",
"W. c #9A1C26",
"Q. c #A80F10",
"!. c #A41414",
"~. c #A2181B",
"^. c #A91618",
"/. c #A9181A",
"(. c #B1191A",
"). c #BB1A1B",
"_. c #B41617",
"`. c #BA281D",
"'. c #A12A2D",
"]. c #A53133",
"[. c #B62738",
"{. c #8D3E42",
"}. c #9C2740",
"|. c #AB3254",
" X c #B25223",
".X c #964D57",
"XX c #805860",
"oX c #97466A",
"OX c #9D5D6A",
"+X c #995471",
"@X c #954675",
"#X c #82725F",
"$X c #96695A",
"%X c #977557",
"&X c #8E677D",
"*X c #95636F",
"=X c #AB4A4D",
"-X c #B0484D",
";X c #A14B69",
":X c #A94979",
">X c #C31819",
",X c #CB1A1A",
"<X c #D2191B",
"1X c #C61E20",
"2X c #CC2121",
"3X c #D82125",
"4X c #E62327",
"5X c #FD282C",
"6X c #F12528",
"7X c #E42A38",
"8X c #E36028",
"9X c #813D8F",
"0X c #883F9C",
"qX c #8F3FA7",
"wX c #953DAC",
"eX c #A53C8A",
"rX c #835987",
"tX c #82599A",
"yX c #955A97",
"uX c #886381",
"iX c #9A679C",
"pX c #A6548A",
"aX c #A9468F",
"sX c #AE789C",
"dX c #BE798F",
"fX c #B67894",
"gX c #8159C4",
"hX c #826CD0",
"jX c #807FF6",
"kX c #C07C8F",
"lX c #A3814D",
"zX c #CC9028",
"xX c #DD9429",
"cX c #E39F2B",
"vX c #E48A2B",
"bX c #E3A032",
"nX c #85919C",
"mX c #9C9D9A",
"MX c #828EBE",
"NX c #8C98A4",
"BX c #9C85AE",
"VX c #929FAB",
"CX c #9492B0",
"ZX c #95A2AE",
"AX c #9BA6B5",
"SX c #A89BAB",
"DX c #BB99A7",
"FX c #A2A8BA",
"GX c #B8A6B6",
"HX c #ABAAC3",
"JX c #A4B2C0",
"KX c #ABBAC8",
"LX c #CC9AAB",
"PX c #CAA2B3",
"IX c #C1B4C4",
"UX c #C7D6E8",
/* pixels */
"q.7.[ [ ] ] ] ] 0.0.9.9.6.o.<.+.+.#.i.1.a.a.a.1.2.>.3.3.tXyXpXpX",
"6.5.] ~ ~ ~ ~ ' ( 5.%.%.%.o.o.o.@.1.u.u.#.1.a.1.1.4.s.gXgXgXgX4.",
" ...H H K *.X. . . . .$.+.#.1.#.+.+.+.+.#.1.1.#.1.,.2.3.3.,.3.4.",
"wXqXqX0XtXA | | -.:.2.;.} =.=.=.;.=.2.2.;.:.:.tXrXrXrXuXuX&X&X&X",
"aXeXeXeXeXeX:X:XOX+X;XoX;XoXoXoXoX@X@X@X@X+X+XOXOX$X$X$X%X%X$X$X",
"AXUXFXJXKXGXSXGXGXPXPXDXDXPXPXLXdXdXfXsXiX-.*.{ { } } } { =.{ *.",
"5.JXP P P P / P P P P P / / ( H.ZX0.H.J.nXNXVXAXAXAXCXHXCXFXHXBX",
"( JXP P P P P P P P P P P P P 0.NXP P P P P P P P P / NX/ P P P ",
"( JXP P P P P P P P P P P P P ( MXw.y.y.t..X-X=X=XlXlXmXP P P ^ ",
"( JXP P P P P P P P P I g.h.z.b.b.b.jXjXhX7X5X5X5XvXcXbX/ P ) E ",
"( JXP P P P P P P I g.x.v.c.c.v.v.v.v.k.|.2X(.(.2X8XxXzX#X_ XXXX",
"( JXP P P P P I g.x.z.f.f.k.k.k.k.k.l.|.6X4X6X,X).(.`. X' _ _ XX",
"( JXP P P P &.z.p.e.d.d.d.h.j.j.k.:.[.4X4X4X4XR._.,X<X<X=X_ ) XX",
"( JXP P P w.p.@.@.@.#.e.e.d.e.*.}.3X3X3X4X3X_.U.!.).<X<X1X_ ) XX",
"( JXP P &.i. . . .o.o.X.H S W.>X~.U.R.Y.Y.Y.z U.R.^.>X<X>X.X) XX",
"( JXP P  .4 4 4 5 5 k n I.R.E.W./.).1X2X).U.x N I.R./.,X<X].) XX",
"( JXP P k + @ ; < p d v c V T.R.~.(.(.(./.d z U.U.R.^.).>X'.XXXX",
"( JXP W W.c P.m Y.z p d h c B B V B B b d a z V V U.R.!.^.{.) XX",
"( JXY R.T.V R./.(._.f ; < , a f v B V V z i d x M m V Y.E.{.) XX",
"( JXZ n c V U.!.>X_.Q.a a d z x v x c b d < a d f z B U.T.E ! R ",
"( FXh g f m N R.(.(.Q.f < < s s s i , i < ; , s d z M N U Q ! ! ",
"( SXg p d z m U.R.E.^.z @ ; @ @ ; ; ; ; ; @ ; < a d x C ^ ! ! R ",
"r u 1 < < d v P.Y.E.!., + + @ $ $ 2 2 0 $ @ ; ; < p l L L G D D ",
"7 7 > @ ; , d m N Y.V = = 6 6 * * % % O o   X X 3 8 = * 6 7 7 7 ",
"u u w @ @ @ , d f h : O O . .             o O & & - w n.m.u 7 6 ",
"7 6 7 * X + @ ; ; # . . . . o o O % & = - 7 7 7 7 7 7 7 7 t m.m.",
"7 7 7 - & * 7 n.e * * = = = 6 7 7 7 7 7 7 7 7 7 7 7 7 7 7 7 7 8 ",
"7 7 7 7 7 7 7 t S.C.7 7 7 7 7 7 7 7 7 7 7 7 7 7 7 7 7 9 e u C.V.",
"7 7 7 7 7 7 7 7 w V.D.t 7 7 7 7 7 7 7 7 7 7 7 e n.C.V.V.N.u 9 7 ",
"7 7 7 7 7 7 7 7 7 7 M.F.y 9 7 7 7 9 e u V.A.V.B.u w 7 7 7 7 7 7 ",
"7 7 7 7 7 7 7 7 7 7 7 y G.V.n.V.S.A.C.u w 7 7 7 7 7 7 7 7 7 7 7 ",
"7 7 7 7 7 7 7 7 w u V.S.D.K.L.t 7 7 7 7 7 7 7 7 7 7 7 7 7 7 7 7 "
};
